<svg width="24" height="24" viewBox="0 0 24 24" fill="none" xmlns="http://www.w3.org/2000/svg">
<path d="M17.7013 15.6679C20.7444 14.1068 23.0513 12.9172 23.2502 12.8247C23.8863 12.5087 24.5432 11.6722 23.2502 11.0224C22.8327 10.8181 20.5851 9.66553 17.7013 8.1792L13.7036 11.9513L17.7013 15.6678V15.6679Z" fill="#FFD900"/>
<path d="M13.7035 11.9512L0.974365 23.9374C1.27315 23.9744 1.61046 23.9004 2.00815 23.6961C2.84308 23.2691 11.6942 18.753 17.7011 15.6686L13.7035 11.9512Z" fill="#F43249"/>
<path d="M13.7035 11.9513L17.7012 8.19774C17.7012 8.19774 2.90347 0.652543 2.00815 0.207142C1.67084 0.0204849 1.29284 -0.0349604 0.95459 0.0204849L13.7035 11.9513V11.9513Z" fill="#00EE76"/>
<path d="M13.7035 11.9513L0.954656 0.0205078C0.43725 0.132274 0 0.559369 0 1.43283V22.5252C0 23.3247 0.338344 23.9005 0.974438 23.956L13.7035 11.9513Z" fill="#00D3FF"/>
</svg>
